<svg width="318" height="124" viewBox="0 0 318 124" fill="none" xmlns="http://www.w3.org/2000/svg">
<path d="M8.45455 108V38.1818H50.3182V45.6818H16.9091V69.2727H47.1818V76.7727H16.9091V108H8.45455Z" fill="#C9C9FF"/>
<path d="M23.4545 93V23.1818H65.3182V30.6818H31.9091V54.2727H62.1818V61.7727H31.9091V93H23.4545Z" fill="#C9C9FF"/>
<path d="M77.592 43.6H105.368V50.064H84.248V64.144H102.68V70.544H84.248V90H77.592V43.6ZM112.931 63.248H119.395V90H112.931V63.248ZM112.611 53.648C112.611 52.6667 112.995 51.8347 113.763 51.152C114.574 50.4693 115.448 50.128 116.387 50.128C117.326 50.128 118.179 50.4693 118.947 51.152C119.715 51.8347 120.099 52.6667 120.099 53.648C120.099 54.7147 119.715 55.568 118.947 56.208C118.179 56.848 117.326 57.168 116.387 57.168C115.448 57.168 114.574 56.848 113.763 56.208C112.995 55.568 112.611 54.7147 112.611 53.648ZM129.494 40.272H135.958V90H129.494V40.272ZM151.88 63.248L152.456 69.072L152.136 68.56C153.117 66.5547 154.504 64.9973 156.296 63.888C158.131 62.736 160.221 62.16 162.568 62.16C164.787 62.16 166.643 62.672 168.136 63.696C169.629 64.72 170.547 66.1707 170.888 68.048L170.568 68.304C171.635 66.384 173.064 64.8907 174.856 63.824C176.648 62.7147 178.525 62.16 180.488 62.16C183.133 62.16 185.224 62.9067 186.76 64.4C188.296 65.8507 189.085 67.7707 189.128 70.16V90H182.728V72.592C182.685 71.2267 182.365 70.096 181.768 69.2C181.213 68.304 180.189 67.8133 178.696 67.728C177.16 67.728 175.795 68.1973 174.6 69.136C173.448 70.0747 172.531 71.2907 171.848 72.784C171.208 74.2773 170.867 75.8773 170.824 77.584V90H164.36V72.592C164.317 71.2267 163.976 70.096 163.336 69.2C162.739 68.304 161.693 67.8133 160.2 67.728C158.707 67.728 157.363 68.1973 156.168 69.136C155.016 70.0747 154.12 71.312 153.48 72.848C152.84 74.3413 152.52 75.9413 152.52 77.648V90H146.056V63.248H151.88ZM200.78 43.6H228.556V50.064H207.436V64.144H225.868V70.544H207.436V90H200.78V43.6ZM246.288 90.64C243.216 90.64 240.57 90.0427 238.352 88.848C236.133 87.6107 234.426 85.9253 233.232 83.792C232.037 81.616 231.44 79.1627 231.44 76.432C231.44 73.7867 232.101 71.3973 233.424 69.264C234.789 67.088 236.602 65.36 238.864 64.08C241.125 62.8 243.642 62.16 246.416 62.16C250 62.16 252.965 63.2053 255.312 65.296C257.701 67.344 259.301 70.2453 260.112 74L238.288 81.552L236.752 77.84L254.288 71.44L252.944 72.336C252.432 70.9707 251.621 69.7973 250.512 68.816C249.402 67.792 247.888 67.28 245.968 67.28C243.578 67.28 241.616 68.112 240.08 69.776C238.586 71.3973 237.84 73.488 237.84 76.048C237.84 78.7787 238.65 80.976 240.272 82.64C241.893 84.304 243.941 85.136 246.416 85.136C247.568 85.136 248.677 84.944 249.744 84.56C250.81 84.1333 251.813 83.5787 252.752 82.896L255.696 87.696C254.33 88.592 252.816 89.3173 251.152 89.872C249.53 90.384 247.909 90.64 246.288 90.64ZM279.913 90.64C276.841 90.64 274.195 90.0427 271.977 88.848C269.758 87.6107 268.051 85.9253 266.857 83.792C265.662 81.616 265.065 79.1627 265.065 76.432C265.065 73.7867 265.726 71.3973 267.049 69.264C268.414 67.088 270.227 65.36 272.489 64.08C274.75 62.8 277.267 62.16 280.041 62.16C283.625 62.16 286.59 63.2053 288.937 65.296C291.326 67.344 292.926 70.2453 293.737 74L271.913 81.552L270.377 77.84L287.913 71.44L286.569 72.336C286.057 70.9707 285.246 69.7973 284.137 68.816C283.027 67.792 281.513 67.28 279.593 67.28C277.203 67.28 275.241 68.112 273.705 69.776C272.211 71.3973 271.465 73.488 271.465 76.048C271.465 78.7787 272.275 80.976 273.897 82.64C275.518 84.304 277.566 85.136 280.041 85.136C281.193 85.136 282.302 84.944 283.369 84.56C284.435 84.1333 285.438 83.5787 286.377 82.896L289.321 87.696C287.955 88.592 286.441 89.3173 284.777 89.872C283.155 90.384 281.534 90.64 279.913 90.64ZM300.994 40.272H307.458V90H300.994V40.272Z" fill="#C9C9FF"/>
</svg>
