<svg width="188" height="48" viewBox="0 0 188 48" fill="none" xmlns="http://www.w3.org/2000/svg">
<path d="M32 16C35.1826 16 38.2348 17.2643 40.4853 19.5147C42.7357 21.7652 44 24.8174 44 28V42H36V28C36 26.9391 35.5786 25.9217 34.8284 25.1716C34.0783 24.4214 33.0609 24 32 24C30.9391 24 29.9217 24.4214 29.1716 25.1716C28.4214 25.9217 28 26.9391 28 28V42H20V28C20 24.8174 21.2643 21.7652 23.5147 19.5147C25.7652 17.2643 28.8174 16 32 16Z" stroke="#C9C9FF" stroke-width="4" stroke-linecap="round" stroke-linejoin="round"/>
<path d="M12 18H4V42H12V18Z" stroke="#C9C9FF" stroke-width="4" stroke-linecap="round" stroke-linejoin="round"/>
<path d="M8 12C10.2091 12 12 10.2091 12 8C12 5.79086 10.2091 4 8 4C5.79086 4 4 5.79086 4 8C4 10.2091 5.79086 12 8 12Z" stroke="#C9C9FF" stroke-width="4" stroke-linecap="round" stroke-linejoin="round"/>
<g clip-path="url(#clip0_525_78)">
<path d="M88 37.9999C78 40.9999 78 32.9999 74 31.9999M102 43.9999V36.2599C102.075 35.3062 101.946 34.3475 101.622 33.4475C101.298 32.5474 100.786 31.7267 100.12 31.0399C106.4 30.3399 113 27.9599 113 17.0399C112.999 14.2475 111.925 11.5623 110 9.53988C110.912 7.09689 110.847 4.39657 109.82 1.99988C109.82 1.99988 107.46 1.29988 102 4.95988C97.416 3.71752 92.584 3.71752 88 4.95988C82.54 1.29988 80.18 1.99988 80.18 1.99988C79.1528 4.39657 79.0883 7.09689 80 9.53988C78.0603 11.5773 76.985 14.2868 77 17.0999C77 27.9399 83.6 30.3199 89.88 31.0999C89.222 31.7798 88.7145 32.5907 88.3906 33.4797C88.0667 34.3687 87.9336 35.316 88 36.2599V43.9999" stroke="#C9C9FF" stroke-width="4" stroke-linecap="round" stroke-linejoin="round"/>
</g>
<path d="M175 13H175.02M154 4H174C179.523 4 184 8.47715 184 14V34C184 39.5228 179.523 44 174 44H154C148.477 44 144 39.5228 144 34V14C144 8.47715 148.477 4 154 4ZM172 22.74C172.247 24.4045 171.963 26.1044 171.188 27.598C170.413 29.0916 169.186 30.3028 167.683 31.0593C166.18 31.8159 164.477 32.0792 162.816 31.8119C161.154 31.5445 159.62 30.7602 158.43 29.5703C157.24 28.3805 156.455 26.8457 156.188 25.1844C155.921 23.5231 156.184 21.8198 156.941 20.3167C157.697 18.8137 158.908 17.5875 160.402 16.8125C161.896 16.0375 163.596 15.7532 165.26 16C166.958 16.2518 168.53 17.0429 169.743 18.2566C170.957 19.4703 171.748 21.0422 172 22.74Z" stroke="#C9C9FF" stroke-width="4" stroke-linecap="round" stroke-linejoin="round"/>
<defs>
<clipPath id="clip0_525_78">
<rect width="48" height="48" fill="white" transform="translate(70)"/>
</clipPath>
</defs>
</svg>
